<svg width="542" height="250" viewBox="0 0 542 250" fill="none" xmlns="http://www.w3.org/2000/svg">
<path d="M495.871 249.402H542L465.908 139.873C460.646 132.264 453.198 126.301 441.935 126.301C430.673 126.301 422.865 132.813 417.603 139.873L339.873 249.402H384.185L412.581 209.375L440.008 249.402H486.137L436.164 176.13L441.206 169.02L495.871 249.402ZM337.986 130.041V130.001C338.416 129.871 338.705 129.572 338.705 129.193C338.705 128.854 338.555 128.575 338.366 128.425C338.106 128.276 337.816 128.166 337.147 128.166C336.568 128.166 336.129 128.206 335.81 128.276V131.766H336.618V130.36H336.998C337.447 130.36 337.657 130.529 337.717 130.908C337.826 131.307 337.886 131.626 337.996 131.756H338.865C338.775 131.626 338.715 131.417 338.605 130.878C338.495 130.41 338.306 130.15 337.966 130.031L337.986 130.041ZM337.028 129.781H336.648V128.784C336.738 128.764 336.878 128.744 337.098 128.744C337.607 128.744 337.846 128.954 337.846 129.273C337.846 129.632 337.487 129.781 337.038 129.781H337.028ZM337.177 126.441C335.181 126.441 333.583 127.996 333.583 129.931C333.583 131.865 335.181 133.461 337.177 133.461C339.174 133.461 340.752 131.915 340.752 129.931C340.752 127.947 339.194 126.441 337.177 126.441ZM337.197 132.713C335.62 132.713 334.472 131.477 334.472 129.931C334.472 128.385 335.62 127.149 337.177 127.149C338.735 127.149 339.863 128.405 339.863 129.951C339.863 131.497 338.735 132.713 337.197 132.713ZM0.0599071 249.471H29.8837V200.112H44.2714V171.942H29.8837V155.149H49.1738V126.969H0.0599071V249.471ZM51.4203 249.471H81.2341V126.969H51.4203V249.471ZM125.486 154.621C125.486 163.366 125.665 171.952 125.835 181.395C124.787 172.121 123.379 163.197 122.151 154.621L118.466 126.969H83.3808V249.471H108.991V215.518C108.991 206.593 108.811 198.187 108.642 188.564C109.69 198.018 110.918 206.593 112.496 215.518L118.636 249.471H151.086V126.969H125.476V154.621H125.486ZM165.903 126.969L151.515 249.471H180.061L181.109 235.122H192.162L193.211 249.471H221.497L207.109 126.969H165.893H165.903ZM183.046 209.754C184.624 186.829 185.682 167.056 186.551 148.149C187.25 167.046 188.478 186.819 190.235 209.754H183.046ZM251.85 126.969H222.036V249.471H268.694V221.292H251.86V126.969H251.85ZM307.084 126.441H296.031C274.984 126.441 269.542 132.743 269.542 155.847V158.819C269.542 176.539 268.903 178.782 288.433 194.837C305.487 208.677 304.628 206.035 304.628 214.96L304.608 217.442C304.608 220.943 304.588 222.099 302.152 222.169H300.245C297.139 222.119 297.439 220.943 297.439 217.442V204.669H269.552V220.594C269.552 243.698 274.994 250 296.041 250H307.094C328.141 250 333.583 243.698 333.583 220.594V215.169C333.583 196.632 333.473 194.677 312.396 177.636C296.66 164.932 298.168 167.415 298.168 158.639V158.29C298.138 154.611 298.627 154.292 300.974 154.262H302.881C305.606 154.292 305.706 155.129 305.686 158.988V168.262H333.583V155.837C333.583 132.733 328.141 126.431 307.094 126.431L307.084 126.441ZM12.8002 122.502H42.614V28.0005H55.4141V0H0V28.0005H12.8002V122.502ZM87.4045 73.1223H93.7148V122.502H123.539V0H93.7148V44.9424H87.4045V0H57.5907V122.502H87.4045V73.1223ZM176.197 94.3221H155.679V73.1124H171.295V44.9324H155.679V28.16H176.197V0H125.855V122.502H176.197V94.3221Z" fill="#E5E6E8"/>
</svg>
